<svg xmlns="http://www.w3.org/2000/svg" viewBox="0 0 215.5 217"><defs><style>.cls-1{fill:none;stroke:#000;stroke-linecap:round;stroke-miterlimit:10;}</style></defs><title>peitoral</title><g id="Camada_2" data-name="Camada 2"><g id="Camada_1-2" data-name="Camada 1"><path class="cls-1" d="M.5,42.8C15.61,15.61,54.88,18.63,73,.5"/><line class="cls-1" x1="63.94" y1="24.67" x2="82.07" y2="36.75"/><line class="cls-1" x1="94.5" y1="38" x2="130.41" y2="21.65"/><path class="cls-1" d="M87.5,44c-4.59,12.19-4.85,31.23-5.43,53.18"/><path class="cls-1" d="M127.39.5c9.06,3,18.13,12.08,18.13,18.13C166.66.5,199.89,18.63,215,39.77"/><path class="cls-1" d="M15.61,67c13.6,10.57-1.51,40.79,18.13,54.38,3.93,2.72,0,12.08,3,21.15,7.7,23.11-7.25,66,1.75,74"/><path class="cls-1" d="M151.5,216.5c0-9.06,3.08-37.75,6.1-49.84s26.48-43.89,33.23-57.4c3-6-12.08-24.17-18.13-30.21"/><path class="cls-1" d="M45.82,178.75c0,6-3,21.15,18.13,21.15"/><path class="cls-1" d="M45.82,154.58c0,6-3,18.13,18.13,18.13"/><path class="cls-1" d="M45.82,136.45c0,9.06,3,12.08,24.17,12.08"/><path class="cls-1" d="M73,202.92c9.06,3,30.21,6,36.25-15.11"/><path class="cls-1" d="M76,175.73c21.15,0,30.21,12.08,39.27-3"/><path class="cls-1" d="M79,148.54c21.15,0,36.25,24.17,39.27-6"/><line class="cls-1" x1="68.48" y1="198.38" x2="69.99" y2="181.77"/><line class="cls-1" x1="71.5" y1="171.19" x2="73.01" y2="154.58"/><line class="cls-1" x1="74.52" y1="144" x2="79.05" y2="121.35"/><path class="cls-1" d="M35.24,122.86C62.43,131.92,73,106.24,79,106.24c12.08,0,3,21.15,48.34,21.15,24.17,0,30.21-15.11,33.23-42.3"/><path class="cls-1" d="M191.23,107.33c1.27,8.17,7.27,14.17,11.27,15.17"/></g></g></svg>