<svg xmlns="http://www.w3.org/2000/svg" viewBox="0 0 218 218"><defs><style>.cls-1{fill:#fff;}.cls-2{fill:none;}</style></defs><title>student</title><g id="Camada_2" data-name="Camada 2"><g id="Camada_1-2" data-name="Camada 1"><path class="cls-1" d="M208.34,207.06H27a8.66,8.66,0,0,1-8.5-7L1.16,109.87a8.66,8.66,0,0,1,8.5-10.29H53.47a8.66,8.66,0,0,1,0,17.32H20.14l14,72.85h174.2a8.66,8.66,0,0,1,0,17.32Z"/><path class="cls-1" d="M113.91,112.79c-4.21-7.79-8.4-15.57-12.63-23.32-2-3.59-4.07-7.11-6-10.72a1.78,1.78,0,0,0-2.44-1C69.26,84.27,49.66,73.1,37.27,55.3c-3.12-4.49-2-9.3,2.51-12.38,4.95-3.37,10.95-2.65,14.72,2s7.5,9,12.89,11.69C76,61,84.58,60.11,93,56.2c5.29-2.46,10.3-5.52,15.44-8.3,8.78-4.73,18.06-7.53,28.13-7.15,13.71.52,24.79,6.63,34.09,16.34a82.74,82.74,0,0,1,5.49,6.56c3.84,4.95,3.57,9.65-.67,13.15-4.56,3.75-11.14,3.5-14.9-.62-2.32-2.53-4.41-5.29-6.9-7.65-7.94-7.52-17.25-9.29-27.76-6.1a14.93,14.93,0,0,0,.57,1.44q9.66,18.45,19.34,36.89c4.65,8.91,10.83,16.34,20.15,20.63a24.28,24.28,0,0,0,22.19-.42c2.56-1.31,5.11-2.6,8.1-2.28a11.19,11.19,0,0,1,9.61,8.68c.91,4.38-1,8.32-5.26,10.85-18.69,11.09-44,8.15-59.8-7a53.72,53.72,0,0,1-4.24-4.44c-.82-1-1.47-1-2.6-.56-11.33,4.33-21.33,10.9-30.8,18.31a19.6,19.6,0,0,0-4.89,6.64c-4.24,8.41-8.23,17-12.3,25.45-2.82,5.89-8.11,8-13.77,5.42-5.51-2.49-7.53-7.83-4.81-13.53,4.25-8.9,8.5-17.81,13.15-26.5a50.9,50.9,0,0,1,8.3-11.74c3.56-3.6,8-6.37,12.2-9.28S109.36,115.67,113.91,112.79Z"/><path class="cls-1" d="M67.87,31A20,20,0,1,1,88,51.06,20.17,20.17,0,0,1,67.87,31Z"/><rect class="cls-1" x="190.7" y="1.59" width="11.01" height="43.58" rx="1.36" ry="1.36" transform="translate(219.59 -172.83) rotate(90)"/><rect class="cls-1" x="190.7" y="1.59" width="11.01" height="43.58" rx="1.36" ry="1.36" transform="translate(392.42 46.77) rotate(180)"/><path class="cls-2" d="M218,218H0V0H218ZM1,217H217V1H1Z"/></g></g></svg>