<svg xmlns="http://www.w3.org/2000/svg" viewBox="0 0 219.02 216"><defs><style>.cls-1{fill:#fff;}</style></defs><title>trainer</title><g id="Camada_2" data-name="Camada 2"><g id="Camada_1-2" data-name="Camada 1"><path class="cls-1" d="M63.8,216c0-4.51-.05-9-.17-13.52a4.23,4.23,0,0,1,1.56-3.35c7.92-7.83,8-18.61.08-26.53a5.54,5.54,0,0,1-1.63-4.42q.11-18.87.15-37.74c0-1.76.34-3.75-1.81-4.58-1.93-.75-3.07.76-4.25,1.89-6.7,6.38-13.33,12.84-20.13,19.12-1.83,1.7-1.54,2.67.09,4.19,7.8,7.29,15.5,14.69,23.27,22,7.18,6.76,8,17,1.74,23.47-6.6,6.9-16.43,6.86-23.8-.05-9.43-8.85-19-17.56-28.31-26.52-8.27-8-12.78-17.3-9.51-29.13,1.13-4.08,4-7,6.7-9.94,11.58-12.72,23.19-25.42,35-38,8-8.55,18.45-12.14,29.87-13.32,1.65-.17,2.31.62,2.9,1.95q14.1,31.3,28.29,62.55c.79,1.74.26,2.15-1.25,2.72-2.47.93-6.27.29-7.11,3-.66,2.13.88,5,1.56,7.49,1.77,6.52,3.67,13,5.37,19.54.68,2.6,1.79,3.54,4.54,2.63,3.93-1.3,8-2.38,12-3.36,2.44-.6,2.92-1.72,2.21-4.1-2.2-7.38-4.13-14.85-6.28-22.25a7.14,7.14,0,0,1,.42-5.45q14.75-31,29.33-62.06c1-2.19,2.28-2.56,4.41-2.32a45,45,0,0,1,28.35,14.25c12.32,13,24.26,26.36,36.32,39.61,5.66,6.22,6.44,13.5,4.22,21.28a31.14,31.14,0,0,1-8.93,14.32c-9.86,9.26-19.7,18.54-29.62,27.72a16.05,16.05,0,0,1-23.24-.81c-5.81-6.25-5.4-16.16,1.09-22.43,7.85-7.59,15.75-15.12,23.77-22.52,2.13-2,2-3-.07-5-6.56-6-12.87-12.29-19.33-18.41-1.31-1.23-2.53-3.15-4.82-2-2,1-1.59,3-1.59,4.72,0,12.34,0,24.69.12,37a6.83,6.83,0,0,1-2,5.36c-7.32,7.43-7.15,18.44.24,25.8.84.83,1.82,1.47,1.78,2.89-.13,4.74-.18,9.47-.26,14.21Z"/><path class="cls-1" d="M112.51,0A36.07,36.07,0,1,1,76.07,35.82C76.12,15.83,92.25,0,112.51,0Z"/><path class="cls-1" d="M84.27,79.5H136.4l-26.59,57.21Z"/><path class="cls-1" d="M112.32,145.84a3,3,0,1,1-6-.24,2.71,2.71,0,0,1,2.91-2.9C111.24,142.7,112.25,143.84,112.32,145.84Z"/></g></g></svg>